<svg xmlns="http://www.w3.org/2000/svg" viewBox="0 0 96 96" xmlns:v="https://vecta.io/nano"><circle cx="48" cy="48" r="48"/><path d="M70.78 42.88c0 1.44-.11 2.85-.32 4.21l-.68 4.42-4.36 28.13H56.5c-.85 0-1.53-.3-2.05-.9-.51-.6-.89-1.31-1.14-2.12s-.36-1.44-.36-1.93c0-.84.06-1.91.19-3.24l.45-4.18.53-3.82 1.55-8.99.72-3.95c.25-1.25.38-2.25.38-2.98 0-.52-.13-1.03-.38-1.48-.23-.45-.63-.67-1.17-.67-.8 0-1.95.69-3.5 2.08-1.53 1.37-3.2 3.37-5 6.01-1.78 2.64-3.39 5.84-4.81 9.63-1.42 3.76-2.39 8.05-2.86 12.85-.08.79-.76 1.48-2.1 2.08-1.33.6-2.8 1.07-4.41 1.42-1.59.38-2.92.55-3.94.55-.8 0-1.48-.17-2.05-.54-.59-.36-.99-1.12-1.19-2.29s-.19-2.96.06-5.36l3.9-35.42c.36-3.41.81-6.82 1.36-10.21.55-3.37.91-6.78 1.1-10.19h8.64c1.52 0 2.75.75 3.71 2.28.98 1.54 1.46 3.11 1.46 4.72 0 1.31-.09 2.53-.27 3.63a75.09 75.09 0 0 1-.68 3.46l-1.04 4.4-5.46 23.22c1.84-4.25 3.85-7.85 5.99-10.81 3.11-4.25 6.19-7.36 9.28-9.31s5.87-2.92 8.37-2.92c2.96 0 5.21.75 6.72 2.25 1.53 1.53 2.28 3.51 2.28 5.97z" fill="#fff"/></svg>